<svg viewBox="0 0 24 24" fill="none" xmlns="http://www.w3.org/2000/svg">
<path fill="currentColor" fill-rule="evenodd" clip-rule="evenodd"
      d="M24 24H18.7283V15.7329C18.7283 13.6383 18.0107 12.2079 16.1568 12.2079C14.7413 12.2079 13.9468 13.1719 13.5786 14.1026C13.4424 14.4357 13.4556 14.9022 13.4556 15.3686V24H8.26192C8.26192 24 8.32895 10.0356 8.26192 8.51304H13.4556V10.692C13.9589 9.63028 15.3688 8.11767 18.0876 8.11767C21.4603 8.11767 24 10.3466 24 15.1343V24ZM2.86387 6.4818H2.832C1.11214 6.4818 0 5.22129 0 3.72535C0 2.19498 1.14511 1 2.89903 1C4.65076 1 5.72993 2.21053 5.7629 3.7409C5.7629 5.23573 4.65076 6.4818 2.86387 6.4818ZM5.42332 24H0.402216V8.51304H5.42332V24Z" />
</svg>
