<svg viewBox="0 0 56 56" fill="none" xmlns="http://www.w3.org/2000/svg">
    <rect width="56" height="56" rx="4" fill="url(#paint0_linear)"/>
    <g filter="url(#filter0_d)">
        <path d="M33.287 15.2L22.713 12L12 15.2V44L22.713 40.8L33.287 44L44 40.8V12L33.287 15.2Z" fill="white"/>
    </g>
    <path opacity="0.6" d="M22.4827 40.6897V12L33.5171 15.3103V44L22.4827 40.6897Z" fill="#FFC2AD"/>
    <path d="M20.209 19.7915L23.6872 23.2698" stroke="#35278C" stroke-miterlimit="10" stroke-linecap="round" stroke-linejoin="round"/>
    <path d="M23.6872 19.7915L20.209 23.2698" stroke="#35278C" stroke-miterlimit="10" stroke-linecap="round" stroke-linejoin="round"/>
    <path d="M32.7307 32.313L36.209 35.7912" stroke="#35278C" stroke-miterlimit="10" stroke-linecap="round" stroke-linejoin="round"/>
    <path d="M36.209 32.313L32.7307 35.7912" stroke="#35278C" stroke-miterlimit="10" stroke-linecap="round" stroke-linejoin="round"/>
    <path d="M21.8782 32.0353C21.8782 29.9483 23.5477 28.2788 25.6347 28.2788H29.6695C32.313 28.2788 34.3999 26.1918 34.3999 23.5483" stroke="#8480FF" stroke-miterlimit="10" stroke-linecap="round"/>
    <path d="M21.8782 36.2091C23.0308 36.2091 23.9652 35.2747 23.9652 34.1221C23.9652 32.9695 23.0308 32.0352 21.8782 32.0352C20.7256 32.0352 19.7913 32.9695 19.7913 34.1221C19.7913 35.2747 20.7256 36.2091 21.8782 36.2091Z" fill="white" stroke="#35278C" stroke-miterlimit="10" stroke-linecap="round" stroke-linejoin="round"/>
    <path d="M34.4002 19.7915L36.4871 23.2698H32.3132L34.4002 19.7915Z" fill="white" stroke="#8480FF" stroke-miterlimit="10" stroke-linecap="round" stroke-linejoin="round"/>
    <defs>
        <filter id="filter0_d" x="4" y="7" width="48" height="48" filterUnits="userSpaceOnUse" color-interpolation-filters="sRGB">
            <feFlood flood-opacity="0" result="BackgroundImageFix"/>
            <feColorMatrix in="SourceAlpha" type="matrix" values="0 0 0 0 0 0 0 0 0 0 0 0 0 0 0 0 0 0 127 0"/>
            <feOffset dy="3"/>
            <feGaussianBlur stdDeviation="4"/>
            <feColorMatrix type="matrix" values="0 0 0 0 0.980392 0 0 0 0 0.47451 0 0 0 0 0.27451 0 0 0 0.6 0"/>
            <feBlend mode="normal" in2="BackgroundImageFix" result="effect1_dropShadow"/>
            <feBlend mode="normal" in="SourceGraphic" in2="effect1_dropShadow" result="shape"/>
        </filter>
        <linearGradient id="paint0_linear" x1="56" y1="56" x2="0" y2="0" gradientUnits="userSpaceOnUse">
            <stop stop-color="#FC9D79"/>
            <stop offset="1" stop-color="#FCD690"/>
        </linearGradient>
    </defs>
</svg>
