<svg viewBox="0 0 56 56" fill="none" xmlns="http://www.w3.org/2000/svg">
<rect width="56" height="56" rx="4" fill="url(#paint0_linear)"/>
<g filter="url(#filter0_d)">
<path d="M44 12H12V44H34.2609L44 34.2609V12Z" fill="white"/>
<path opacity="0.6" d="M34.2607 34.261V44.0001L43.9999 34.261H34.2607Z" fill="#FFC2AD"/>
</g>
<path d="M30.6386 23.016L19.5996 33.8156L22.2265 36.5008L33.2655 25.7012L30.6386 23.016Z" fill="#A3A6FF" stroke="#35278C" stroke-miterlimit="10" stroke-linecap="round" stroke-linejoin="round"/>
<path d="M35.4534 18.2451L30.5811 23.0132L33.2084 25.698L38.0808 20.9299L35.4534 18.2451Z" fill="white" stroke="#35278C" stroke-miterlimit="10" stroke-linecap="round" stroke-linejoin="round"/>
<path d="M27.583 23.4082L32.0352 19.0952C32.7308 18.3995 33.983 18.3995 34.6787 19.0952" stroke="#35278C" stroke-miterlimit="10" stroke-linecap="round" stroke-linejoin="round"/>
<path d="M19.6524 33.7039L17.8438 38.1561L22.2959 36.3474L19.6524 33.7039Z" fill="white" stroke="#35278C" stroke-miterlimit="10" stroke-linecap="round" stroke-linejoin="round"/>
<defs>
<filter id="filter0_d" x="4" y="7" width="48" height="48.0001" filterUnits="userSpaceOnUse" color-interpolation-filters="sRGB">
<feFlood flood-opacity="0" result="BackgroundImageFix"/>
<feColorMatrix in="SourceAlpha" type="matrix" values="0 0 0 0 0 0 0 0 0 0 0 0 0 0 0 0 0 0 127 0"/>
<feOffset dy="3"/>
<feGaussianBlur stdDeviation="4"/>
<feColorMatrix type="matrix" values="0 0 0 0 0.980392 0 0 0 0 0.47451 0 0 0 0 0.27451 0 0 0 0.6 0"/>
<feBlend mode="normal" in2="BackgroundImageFix" result="effect1_dropShadow"/>
<feBlend mode="normal" in="SourceGraphic" in2="effect1_dropShadow" result="shape"/>
</filter>
<linearGradient id="paint0_linear" x1="56" y1="56" x2="0" y2="0" gradientUnits="userSpaceOnUse">
<stop stop-color="#FC9D79"/>
<stop offset="1" stop-color="#FCD690"/>
</linearGradient>
</defs>
</svg>
